<svg width="122" height="104" viewBox="0 0 122 104" xmlns="http://www.w3.org/2000/svg"><title>Logo</title><g fill="none" fill-rule="evenodd"><path fill="#859294" d="M69.7825977 85.3439459L83.5952414 85.3439459 83.5952414 0 69.7825977 13.8432432z"/><path fill="#859294" d="M33.5030931 85.3439459L47.3157368 85.3439459 47.3157368 36.3599459 33.5030931 50.2031892z"/><path fill="#859294" d="M51.6428805 85.3439459L65.4555241 85.3439459 65.4555241 18.2948649 51.7263172 32.0551892z"/><path d="M29.868 77.576l7.091-7.07 12.565 12.527L66.008 66.6l12.564 12.526 24.135-24.06m-80.189 6.892L33.652 50.86l3.856 3.845L49.08 43.168 67.205 61.24l8.771-8.744 6.581 6.56 25.876-25.797" stroke="#FFFFFE" stroke-width="1.4"/><path fill="#D7352E" d="M58.9962552 63.7484162L49.6099678 73.1554973 40.2236805 63.7484162 49.6099678 54.3413351z"/><path stroke="#D9352B" stroke-width="1.4" d="M58.9962552 63.7484162L49.6099678 73.1554973 40.2236805 63.7484162 49.6099678 54.3413351z"/><path fill="#FFFFFE" d="M108.339926 32.3464595L109.32434 33.3330541 110.437766 31.2305676z"/><path stroke="#FFFFFE" stroke-width="1.4" d="M108.339926 32.3464595L109.32434 33.3330541 110.437766 31.2305676z"/><path fill="#FFFFFE" d="M102.764877 54.1958054L103.749291 55.1824 104.862716 53.0792108z"/><path stroke="#FFFFFE" stroke-width="1.4" d="M102.764877 54.1958054L103.749291 55.1824 104.862716 53.0792108z"/><path fill="#FFFFFE" d="M6.97573563 93.4418919L6.97573563 103.263568 5.8574023 103.263568 5.8574023 98.7936757 1.11833333 98.7936757 1.11833333 103.263568 0 103.263568 0 93.4418919 1.11833333 93.4418919 1.11833333 97.7993514 5.8574023 97.7993514 5.8574023 93.4418919z"/><path fill="#FFFFFE" d="M13.7277345 99.7189946L13.7277345 103.263427 12.6234241 103.263427 12.6234241 99.7189946 9.3799069 93.4417514 10.6524931 93.4417514 13.1822402 98.569373 13.2383322 98.569373 15.7687805 93.4417514 16.9705506 93.4417514z"/><path d="M25.372 96.258c0 1.962-1.132 3.125-3.383 3.125h-1.496v3.88h-1.118v-9.821H22.2c1.943 0 3.173.841 3.173 2.816zm-4.879-1.82v3.964h1.496c1.622 0 2.223-.715 2.223-2.018 0-1.4-.783-1.947-2.265-1.947h-1.454z" fill="#FFFFFE"/><path fill="#FFFFFE" d="M28.3079264 103.263568L28.3079264 93.4418919 33.5083517 93.4418919 33.5083517 94.4369189 29.4262598 94.4369189 29.4262598 97.7852973 33.0189494 97.7852973 33.0189494 98.7796216 29.4262598 98.7796216 29.4262598 102.268541 33.7039724 102.268541 33.7039724 103.263568z"/><path d="M39.24 93.442c2.04 0 3.27.799 3.27 2.76 0 1.611-1.034 2.55-2.208 2.676v.056c.392.182.741.505 1.188 1.26l1.804 3.07h-1.328l-1.776-3.139c-.378-.645-.81-.939-1.523-.939h-.77v4.078H36.78v-9.822h2.46zm-1.342 4.778h1.257c1.357 0 2.21-.533 2.21-1.891 0-1.373-.797-1.892-2.279-1.892h-1.188v3.783zm6.598-4.778h1.216l2.25 7.061c.196.631.406 1.275.588 1.905h.056c.181-.63.39-1.26.587-1.905l2.264-7.061h1.147l-3.202 9.822h-1.705l-3.201-9.822zm13.616 9.961c-2.335 0-3.747-1.386-3.747-5.002 0-3.628 1.496-5.1 3.859-5.1 2.32 0 3.746 1.388 3.746 5.003 0 3.629-1.51 5.1-3.858 5.1m.07-1.01c1.621 0 2.642-.952 2.642-3.993 0-3.068-1.049-4.09-2.684-4.09-1.594 0-2.628.938-2.628 3.993 0 3.068 1.048 4.09 2.67 4.09" fill="#FFFFFE"/><path fill="#FFFFFE" d="M66.3590954 93.4418919L66.3590954 102.268541 70.5666931 102.268541 70.5666931 103.263568 65.2407621 103.263568 65.2407621 93.4418919z"/><path d="M76.913 93.442l3.174 9.822h-1.174l-.91-2.859h-3.941l-.909 2.859h-1.146l3.173-9.822h1.733zm-2.53 5.968h3.3l-1.049-3.306c-.224-.714-.392-1.289-.573-1.891h-.056c-.168.589-.35 1.177-.56 1.863l-1.061 3.334z" fill="#FFFFFE"/><path fill="#FFFFFE" d="M83.3997609 94.4367784L80.7858759 94.4367784 80.7858759 93.4417514 87.1186575 93.4417514 87.1186575 94.4367784 84.5180943 94.4367784 84.5180943 103.263427 83.3997609 103.263427z"/><path fill="#FFFFFE" d="M89.8445161 103.263708L90.9628494 103.263708 90.9628494 93.4420324 89.8445161 93.4420324z"/><path fill="#FFFFFE" d="M95.9534207 93.4418919L95.9534207 102.268541 100.161018 102.268541 100.161018 103.263568 94.8350874 103.263568 94.8350874 93.4418919z"/><path fill="#FFFFFE" d="M102.942689 103.263708L104.061022 103.263708 104.061022 93.4420324 102.942689 93.4420324z"/><path fill="#FFFFFE" d="M109.401186 94.4367784L106.7866 94.4367784 106.7866 93.4417514 113.119382 93.4417514 113.119382 94.4367784 110.51952 94.4367784 110.51952 103.263427 109.401186 103.263427z"/><path fill="#FFFFFE" d="M118.724791 99.7189946L118.724791 103.263427 117.62048 103.263427 117.62048 99.7189946 114.376963 93.4417514 115.649549 93.4417514 118.179998 98.569373 118.23609 98.569373 120.765837 93.4417514 121.968308 93.4417514z"/></g></svg>